<svg id="logosandtypes_com" xmlns="http://www.w3.org/2000/svg" viewBox="0 0 150 150" xml:space="preserve"><path d="M0 0h150v150H0V0z" fill="none"></path><path d="M85.4 32.8c-3.2-.8-5.7-1.2-7.5-1.2-13 0-23.6 10.5-23.6 23.5s10.6 23.5 23.6 23.5 23.6-10.5 23.6-23.5c0-1.9-.2-3.8-.7-5.6l18.7-5c3.1 11.7 1 24.1-5.6 34.2l-31 57.5H54.2l20.4-37.6c.1-.2-.2-.7-.5-.7-21.8-2-38.9-20.3-38.9-42.5 0-23.6 19.2-42.7 42.8-42.7 4.3 0 8.6.6 12.8 1.9l-5.4 18.2z" fill-rule="evenodd" clip-rule="evenodd" fill="#006f54"></path><circle class="st2" cx="77.8" cy="55.1" r="12.9"></circle><path class="st2" d="M100.1 47.8c-.6 0-1.1-.3-1.4-.9-2.1-5.3-6.1-9.5-11.3-11.8-.7-.3-1.1-1.2-.7-1.9.3-.7 1.2-1.1 1.9-.7 5.9 2.7 10.4 7.4 12.8 13.4.3.8-.1 1.6-.8 1.9h-.5zm8.2-3.5c-.6 0-1.1-.3-1.4-.9-3-7.4-8.7-13.4-16-16.8-.7-.3-1.1-1.2-.7-2 .3-.7 1.2-1.1 2-.7 8 3.7 14.2 10.2 17.5 18.4.3.8-.1 1.6-.8 1.9-.2 0-.4.1-.6.1zm7.9-2.7c-.6 0-1.1-.4-1.4-.9-3.9-9.9-11.4-17.8-21.2-22.1-.7-.3-1.1-1.2-.8-1.9.3-.7 1.2-1.1 1.9-.8 5.2 2.3 9.8 5.5 13.7 9.6 3.9 4.1 7 8.8 9 14.1.3.8-.1 1.6-.8 1.9 0 .1-.2.1-.4.1z"></path></svg>