<?xml version="1.0"?>


<svg xmlns:dc="http://purl.org/dc/elements/1.1/" xmlns:cc="http://creativecommons.org/ns#" xmlns:rdf="http://www.w3.org/1999/02/22-rdf-syntax-ns#" xmlns:svg="http://www.w3.org/2000/svg" xmlns="http://www.w3.org/2000/svg" xmlns:sodipodi="http://sodipodi.sourceforge.net/DTD/sodipodi-0.dtd" xmlns:inkscape="http://www.inkscape.org/namespaces/inkscape" width="2692.6768" height="500" viewBox="0 0 712.43738 132.29167" version="1.1" id="svg8">
  <defs id="defs2">
    <clipPath id="clipPath831" clipPathUnits="userSpaceOnUse">
      <path id="path829" d="m 95,383.755 h 402.999 v 74.833 H 95 Z"></path>
    </clipPath>
  </defs>
  <namedview id="base" pagecolor="#ffffff" bordercolor="#666666" borderopacity="1.0" showgrid="false" units="px" fit-margin-top="0" fit-margin-left="0" fit-margin-right="0" fit-margin-bottom="0"></namedview>
  <metadata id="metadata5">
    <RDF>
      <Work>
        <format>image/svg+xml</format>
        <type></type>
        <title></title>
      </Work>
    </RDF>
  </metadata>
  <g id="layer1" transform="translate(69.081063,-146.23348)">
    <g transform="matrix(1.7678442,0,0,-1.7678442,-237.02803,956.94562)" id="g823" style="stroke-width:0.19955252">
      <g id="g825" style="stroke-width:0.19955252">
        <g clip-path="url(#clipPath831)" id="g827" style="stroke-width:0.19955252">
          <g transform="translate(496.875,438.4688)" id="g833" style="stroke-width:0.19955252">
            <path id="path835" style="fill:#0095da;fill-opacity:1;fill-rule:nonzero;stroke:none;stroke-width:0.19955252" d="m 0,0 h -8.81 c -1.553,0 -2.985,-1.461 -3.003,-1.492 l -33.47,-43.822 c -0.629,-0.816 -1.621,-0.797 -2.217,0.04 l -30.908,43.776 c -0.017,0.037 -1.165,1.536 -3.328,1.536 h -59.368 c -1.037,0 -1.874,0.837 -1.867,1.869 l 0.04,14.462 c 0,2.076 -1.682,3.751 -3.743,3.751 h -90.93 c -14.083,-0.476 -20.107,-1.885 -26.55,-5.646 -5.94,-3.482 -8.905,-7.899 -8.905,-13.209 0,-5.63 4.595,-11.181 13.788,-16.658 2.362,-1.421 10.871,-5.52 25.506,-12.283 9.195,-4.248 14.154,-7.743 13.796,-11.195 -0.558,-5.553 -5.605,-7.459 -17.635,-7.459 h -54.979 c -1.331,0 -2.417,0.231 -2.417,1.27 0,0.509 0.304,0.974 0.878,1.339 l -0.01,0.008 c 12.31,7.398 16.371,17.393 16.371,26.452 0,16.951 -14.258,37.381 -71.023,37.381 h -49.354 c -2.064,0 -3.736,-1.675 -3.736,-3.751 v -67.348 c 0,-2.057 1.672,-3.734 3.742,-3.734 h 49.348 c 1.884,0 3.712,0.023 5.485,0.07 h 123.437 c 11.274,0 20.08,1.864 26.44,5.576 5.872,3.455 8.807,7.825 8.807,13.167 0,5.606 -4.594,11.147 -13.786,16.619 -2.353,1.417 -10.857,5.544 -25.515,12.338 -9.189,4.245 -13.784,7.678 -13.784,10.301 0,5.626 5.952,8.353 17.838,8.353 h 41.728 c 1.034,0 1.871,-0.832 1.877,-1.861 l -0.027,-48.867 c 0,-7.164 4.741,-15.626 19.111,-15.626 h 114.694 c 2.718,0 4.091,1.756 4.091,1.756 L 0.911,-1.243 C 0.911,-1.243 1.782,0 0,0 m -356.197,-46.613 h -12.15 c -1.035,0 -1.874,0.837 -1.874,1.867 v 54.921 c 0,1.03 0.839,1.869 1.864,1.869 h 12.16 c 30.059,0 46.003,-12.354 46.003,-29.305 0,-17.025 -16.095,-29.352 -46.003,-29.352 m 275.329,-0.201 h -52.98 c -7.373,0 -9.13,2.102 -9.13,7.797 v 29.382 c 0,0.987 0.781,1.78 1.742,1.848 h 30.765 c 0.97,-0.068 2.141,-0.651 2.754,-1.392 l 27.625,-36.228 c 0.544,-0.774 0.216,-1.407 -0.776,-1.407"></path>
          </g>
        </g>
      </g>
    </g>
  </g>
</svg>