<?xml version="1.0"?>

<svg version="1.1" id="Layer_1" xmlns="http://www.w3.org/2000/svg" xmlns:xlink="http://www.w3.org/1999/xlink" x="0px" y="0px" viewBox="0 0 254.48645 47.90786" style="enable-background:new 0 0 254.48645 47.90786;" xml:space="preserve">

<g>
&#x9;<path class="st0" d="M48.42419,1.08662c5.24962,0.00339,10.50056,0.06939,15.74838-0.02969&#xA;&#x9;&#x9;c2.04724-0.03865,2.51595,0.87157,2.54723,2.70543c0.03282,1.92447-0.80722,2.40296-2.55421,2.41123&#xA;&#x9;&#x9;C57.00262,6.20745,49.83379,5.87948,42.67777,6.4738c-4.52283,0.37563-8.90856,1.29576-12.96504,3.39331&#xA;&#x9;&#x9;c-5.61954,2.90579-9.40903,7.18904-9.55977,13.82837c-0.15339,6.75583,3.43081,11.35176,9.16835,14.2958&#xA;&#x9;&#x9;c7.2746,3.73274,15.09171,4.52956,23.10467,3.38396c3.23161-0.46202,4.3337-1.9782,4.3679-5.29145&#xA;&#x9;&#x9;c0.02322-2.24958-0.06868-4.502,0.01211-6.7488c0.06245-1.73721-0.69049-2.40263-2.37155-2.37146&#xA;&#x9;&#x9;c-2.58202,0.04786-5.17213-0.11481-7.74688,0.02753c-2.08112,0.11506-2.98947-0.40742-2.96565-2.72862&#xA;&#x9;&#x9;c0.02299-2.23991,0.99295-2.57251,2.88551-2.558c8.3323,0.06392,16.66622-0.04371,24.9977,0.05962&#xA;&#x9;&#x9;c2.01633,0.02501,2.87386-0.44055,3.2671-2.591c1.49323-8.16572,6.86627-13.45462,14.30662-15.91998&#xA;&#x9;&#x9;c12.79852-4.24079,25.95676-4.4615,38.74955,0.08379c15.12737,5.37478,19.91819,23.7242,9.52004,35.24872&#xA;&#x9;&#x9;c-3.6412,4.03562-8.32585,6.4137-13.55109,7.50156c-12.25954,2.55236-24.46133,2.86662-36.33108-1.97552&#xA;&#x9;&#x9;c-3.60204-1.4694-6.63943-3.76801-9.02-6.88766c-0.34966-0.4582-0.7404-1.02232-1.36468-0.98246&#xA;&#x9;&#x9;c-0.6216,0.03969-0.6834,0.67789-0.66901,1.16123c0.15802,5.30674-3.59122,7.10518-7.70623,8.44301&#xA;&#x9;&#x9;c-1.6447,0.53471-3.42182,0.8729-5.14771,0.91317c-11.98916,0.27976-23.99792,0.89211-35.93409-0.82027&#xA;&#x9;&#x9;c-6.37781-0.91496-12.57994-2.49587-18.12975-5.98808C-3.56887,31.6674-3.10335,15.14409,10.4725,7.56174&#xA;&#x9;&#x9;c7.07224-3.94997,14.81654-5.29964,22.71521-6.03798C38.25053,1.0505,43.33947,1.03344,48.42419,1.08662z M94.48291,22.25781&#xA;&#x9;&#x9;c-0.00551,6.20271,0.89565,9.66079,3.1035,13.52799c4.98475,8.73113,15.05231,9.39314,21.1237,1.39953&#xA;&#x9;&#x9;c1.11278-1.4651,1.5499-3.22189,2.29506-4.84367c3.35759-7.30738,1.51743-18.08608-4.28212-23.56101&#xA;&#x9;&#x9;c-4.95398-4.6767-11.689-4.67542-16.53926,0.12097C96.03711,13.00222,94.55632,18.18522,94.48291,22.25781z"></path>
&#x9;<path class="st1" d="M159.05138,47.00325c-1.4978-0.00182-3.00757,0.00525-4.49112-0.1684&#xA;&#x9;&#x9;c-5.63239-0.65924-8.99554-4.40126-9.01039-10.06707c-0.02792-10.66342-0.00607-21.327,0.01085-31.99048&#xA;&#x9;&#x9;c0.00487-3.07174,0.59846-3.67922,3.62572-3.69743c4.49846-0.02706,8.99734-0.03463,13.49574-0.00545&#xA;&#x9;&#x9;c2.72881,0.0177,3.39091,0.70078,3.41745,3.38355c0.0206,2.08253,0.11749,4.17283-0.02203,6.24605&#xA;&#x9;&#x9;c-0.14285,2.12244,0.73593,2.71701,2.76653,2.70296c10.74635-0.07436,21.49478,0.05604,32.23952-0.09541&#xA;&#x9;&#x9;c2.89561-0.04082,4.70142,0.83507,6.35265,3.28467c5.20901,7.72754,10.68877,15.27286,16.08052,22.87681&#xA;&#x9;&#x9;c1.77078,2.49731,1.91655,2.48866,3.80862,0.01859c6.07204-7.92696,12.13136-15.86368,18.20711-23.7878&#xA;&#x9;&#x9;c1.48795-1.94057,6.16449-3.17553,8.32614-2.1846c1.3111,0.60102,0.21475,1.25668-0.12268,1.70919&#xA;&#x9;&#x9;c-3.23438,4.33732-18.14993,23.74492-22.194,29.24376c-1.3837,1.88148-2.95377,2.61375-5.26022,2.59768&#xA;&#x9;&#x9;C214.61905,46.98862,169.79831,47.01629,159.05138,47.00325z M186.74309,42.09254c5.32851,0,10.65703,0.0047,15.9855-0.00695&#xA;&#x9;&#x9;c0.55893-0.00122,1.26578,0.1726,1.56741-0.46196c0.2982-0.62736-0.29193-1.07687-0.62151-1.50896&#xA;&#x9;&#x9;c-5.14746-6.74834-10.32607-13.47294-15.46506-20.22769c-0.82213-1.08061-1.77704-1.64277-3.15929-1.63216&#xA;&#x9;&#x9;c-5.49567,0.04216-10.99239,0.08322-16.48737,0.01581c-2.03217-0.02494-2.52956,0.88619-2.49536,2.74715&#xA;&#x9;&#x9;c0.09482,5.1612,0.02448,10.32522,0.05086,15.48796c0.02272,4.44783,1.08771,5.54174,5.63596,5.59835&#xA;&#x9;&#x9;C176.7498,42.16627,186.74309,42.10112,186.74309,42.09254z"></path>
</g>
</svg>